<mxfile host="app.diagrams.net" modified="2021-08-24T08:03:03.745Z" agent="5.0 (Macintosh; Intel Mac OS X 10_15_7) AppleWebKit/537.36 (KHTML, like Gecko) Chrome/92.0.4515.159 Safari/537.36" etag="HKJuHnnYRyERSDKR6GyU" version="14.9.8" type="github">
  <diagram id="45M3cRJ7KHBeyDSTx4aS" name="Page-1">
    <mxGraphModel dx="1186" dy="646" grid="1" gridSize="10" guides="1" tooltips="1" connect="1" arrows="1" fold="1" page="1" pageScale="1" pageWidth="827" pageHeight="1169" math="0" shadow="0">
      <root>
        <mxCell id="0" />
        <mxCell id="1" parent="0" />
        <mxCell id="ZFMh5SB0hw9YFJ7T-eh--18" value="Secuserve" style="shape=umlActor;verticalLabelPosition=bottom;verticalAlign=top;html=1;outlineConnect=0;" vertex="1" parent="1">
          <mxGeometry x="80" y="350" width="30" height="60" as="geometry" />
        </mxCell>
        <mxCell id="ZFMh5SB0hw9YFJ7T-eh--22" value="" style="endArrow=classic;html=1;" edge="1" parent="1">
          <mxGeometry width="50" height="50" relative="1" as="geometry">
            <mxPoint x="110" y="381" as="sourcePoint" />
            <mxPoint x="210" y="381" as="targetPoint" />
          </mxGeometry>
        </mxCell>
        <mxCell id="ZFMh5SB0hw9YFJ7T-eh--28" value="Profil de droit niveau 1" style="rounded=0;whiteSpace=wrap;html=1;" vertex="1" parent="1">
          <mxGeometry x="230" y="365" width="90" height="30" as="geometry" />
        </mxCell>
        <mxCell id="ZFMh5SB0hw9YFJ7T-eh--29" value="Grossiste" style="shape=umlActor;verticalLabelPosition=bottom;verticalAlign=top;html=1;outlineConnect=0;" vertex="1" parent="1">
          <mxGeometry x="450" y="350" width="30" height="60" as="geometry" />
        </mxCell>
        <mxCell id="ZFMh5SB0hw9YFJ7T-eh--30" value="" style="endArrow=classic;html=1;" edge="1" parent="1">
          <mxGeometry width="50" height="50" relative="1" as="geometry">
            <mxPoint x="480" y="381" as="sourcePoint" />
            <mxPoint x="580" y="381" as="targetPoint" />
          </mxGeometry>
        </mxCell>
        <mxCell id="ZFMh5SB0hw9YFJ7T-eh--33" value="ISP" style="shape=umlActor;verticalLabelPosition=bottom;verticalAlign=top;html=1;outlineConnect=0;" vertex="1" parent="1">
          <mxGeometry x="80" y="490" width="30" height="60" as="geometry" />
        </mxCell>
        <mxCell id="ZFMh5SB0hw9YFJ7T-eh--34" value="" style="endArrow=classic;html=1;" edge="1" parent="1">
          <mxGeometry width="50" height="50" relative="1" as="geometry">
            <mxPoint x="110" y="521" as="sourcePoint" />
            <mxPoint x="210" y="521" as="targetPoint" />
          </mxGeometry>
        </mxCell>
        <mxCell id="ZFMh5SB0hw9YFJ7T-eh--36" value="Client" style="shape=umlActor;verticalLabelPosition=bottom;verticalAlign=top;html=1;outlineConnect=0;" vertex="1" parent="1">
          <mxGeometry x="450" y="490" width="30" height="60" as="geometry" />
        </mxCell>
        <mxCell id="ZFMh5SB0hw9YFJ7T-eh--37" value="" style="endArrow=classic;html=1;" edge="1" parent="1">
          <mxGeometry width="50" height="50" relative="1" as="geometry">
            <mxPoint x="480" y="521" as="sourcePoint" />
            <mxPoint x="580" y="521" as="targetPoint" />
          </mxGeometry>
        </mxCell>
        <mxCell id="ZFMh5SB0hw9YFJ7T-eh--77" value="Domaine" style="shape=umlActor;verticalLabelPosition=bottom;verticalAlign=top;html=1;outlineConnect=0;" vertex="1" parent="1">
          <mxGeometry x="294" y="620" width="30" height="60" as="geometry" />
        </mxCell>
        <mxCell id="ZFMh5SB0hw9YFJ7T-eh--78" value="" style="endArrow=classic;html=1;" edge="1" parent="1">
          <mxGeometry width="50" height="50" relative="1" as="geometry">
            <mxPoint x="324" y="651" as="sourcePoint" />
            <mxPoint x="424" y="651" as="targetPoint" />
          </mxGeometry>
        </mxCell>
        <mxCell id="ZFMh5SB0hw9YFJ7T-eh--82" value="Profil de droit niveau&amp;nbsp;2" style="rounded=0;whiteSpace=wrap;html=1;" vertex="1" parent="1">
          <mxGeometry x="600" y="365" width="90" height="30" as="geometry" />
        </mxCell>
        <mxCell id="ZFMh5SB0hw9YFJ7T-eh--83" value="Profil de droit niveau&amp;nbsp;3" style="rounded=0;whiteSpace=wrap;html=1;" vertex="1" parent="1">
          <mxGeometry x="230" y="505" width="90" height="30" as="geometry" />
        </mxCell>
        <mxCell id="ZFMh5SB0hw9YFJ7T-eh--84" value="Profil de droit niveau&amp;nbsp;5" style="rounded=0;whiteSpace=wrap;html=1;" vertex="1" parent="1">
          <mxGeometry x="444" y="635" width="90" height="30" as="geometry" />
        </mxCell>
        <mxCell id="ZFMh5SB0hw9YFJ7T-eh--85" value="Profil de droit niveau&amp;nbsp;4" style="rounded=0;whiteSpace=wrap;html=1;" vertex="1" parent="1">
          <mxGeometry x="600" y="500" width="90" height="30" as="geometry" />
        </mxCell>
        <mxCell id="ZFMh5SB0hw9YFJ7T-eh--88" value="User_profil" style="swimlane;fontStyle=0;childLayout=stackLayout;horizontal=1;startSize=26;horizontalStack=0;resizeParent=1;resizeParentMax=0;resizeLast=0;collapsible=1;marginBottom=0;" vertex="1" parent="1">
          <mxGeometry x="560" y="170" width="140" height="104" as="geometry" />
        </mxCell>
        <mxCell id="ZFMh5SB0hw9YFJ7T-eh--89" value="id" style="text;strokeColor=none;fillColor=none;align=left;verticalAlign=top;spacingLeft=4;spacingRight=4;overflow=hidden;rotatable=0;points=[[0,0.5],[1,0.5]];portConstraint=eastwest;" vertex="1" parent="ZFMh5SB0hw9YFJ7T-eh--88">
          <mxGeometry y="26" width="140" height="26" as="geometry" />
        </mxCell>
        <mxCell id="ZFMh5SB0hw9YFJ7T-eh--90" value="name" style="text;strokeColor=none;fillColor=none;align=left;verticalAlign=top;spacingLeft=4;spacingRight=4;overflow=hidden;rotatable=0;points=[[0,0.5],[1,0.5]];portConstraint=eastwest;" vertex="1" parent="ZFMh5SB0hw9YFJ7T-eh--88">
          <mxGeometry y="52" width="140" height="26" as="geometry" />
        </mxCell>
        <mxCell id="ZFMh5SB0hw9YFJ7T-eh--91" value="level" style="text;strokeColor=none;fillColor=none;align=left;verticalAlign=top;spacingLeft=4;spacingRight=4;overflow=hidden;rotatable=0;points=[[0,0.5],[1,0.5]];portConstraint=eastwest;" vertex="1" parent="ZFMh5SB0hw9YFJ7T-eh--88">
          <mxGeometry y="78" width="140" height="26" as="geometry" />
        </mxCell>
        <mxCell id="ZFMh5SB0hw9YFJ7T-eh--92" value="User" style="swimlane;fontStyle=0;childLayout=stackLayout;horizontal=1;startSize=26;horizontalStack=0;resizeParent=1;resizeParentMax=0;resizeLast=0;collapsible=1;marginBottom=0;" vertex="1" parent="1">
          <mxGeometry x="344" y="17" width="140" height="104" as="geometry" />
        </mxCell>
        <mxCell id="ZFMh5SB0hw9YFJ7T-eh--93" value="id" style="text;strokeColor=none;fillColor=none;align=left;verticalAlign=top;spacingLeft=4;spacingRight=4;overflow=hidden;rotatable=0;points=[[0,0.5],[1,0.5]];portConstraint=eastwest;" vertex="1" parent="ZFMh5SB0hw9YFJ7T-eh--92">
          <mxGeometry y="26" width="140" height="26" as="geometry" />
        </mxCell>
        <mxCell id="ZFMh5SB0hw9YFJ7T-eh--94" value="user_profil_level" style="text;strokeColor=none;fillColor=none;align=left;verticalAlign=top;spacingLeft=4;spacingRight=4;overflow=hidden;rotatable=0;points=[[0,0.5],[1,0.5]];portConstraint=eastwest;" vertex="1" parent="ZFMh5SB0hw9YFJ7T-eh--92">
          <mxGeometry y="52" width="140" height="26" as="geometry" />
        </mxCell>
        <mxCell id="ZFMh5SB0hw9YFJ7T-eh--95" value="user_profil_name" style="text;strokeColor=none;fillColor=none;align=left;verticalAlign=top;spacingLeft=4;spacingRight=4;overflow=hidden;rotatable=0;points=[[0,0.5],[1,0.5]];portConstraint=eastwest;" vertex="1" parent="ZFMh5SB0hw9YFJ7T-eh--92">
          <mxGeometry y="78" width="140" height="26" as="geometry" />
        </mxCell>
        <mxCell id="ZFMh5SB0hw9YFJ7T-eh--96" value="User_rights" style="swimlane;fontStyle=0;childLayout=stackLayout;horizontal=1;startSize=26;horizontalStack=0;resizeParent=1;resizeParentMax=0;resizeLast=0;collapsible=1;marginBottom=0;" vertex="1" parent="1">
          <mxGeometry x="130" y="170" width="140" height="104" as="geometry" />
        </mxCell>
        <mxCell id="ZFMh5SB0hw9YFJ7T-eh--97" value="id" style="text;strokeColor=none;fillColor=none;align=left;verticalAlign=top;spacingLeft=4;spacingRight=4;overflow=hidden;rotatable=0;points=[[0,0.5],[1,0.5]];portConstraint=eastwest;" vertex="1" parent="ZFMh5SB0hw9YFJ7T-eh--96">
          <mxGeometry y="26" width="140" height="26" as="geometry" />
        </mxCell>
        <mxCell id="ZFMh5SB0hw9YFJ7T-eh--98" value="type" style="text;strokeColor=none;fillColor=none;align=left;verticalAlign=top;spacingLeft=4;spacingRight=4;overflow=hidden;rotatable=0;points=[[0,0.5],[1,0.5]];portConstraint=eastwest;" vertex="1" parent="ZFMh5SB0hw9YFJ7T-eh--96">
          <mxGeometry y="52" width="140" height="26" as="geometry" />
        </mxCell>
        <mxCell id="ZFMh5SB0hw9YFJ7T-eh--99" value="name" style="text;strokeColor=none;fillColor=none;align=left;verticalAlign=top;spacingLeft=4;spacingRight=4;overflow=hidden;rotatable=0;points=[[0,0.5],[1,0.5]];portConstraint=eastwest;" vertex="1" parent="ZFMh5SB0hw9YFJ7T-eh--96">
          <mxGeometry y="78" width="140" height="26" as="geometry" />
        </mxCell>
        <mxCell id="ZFMh5SB0hw9YFJ7T-eh--101" value="" style="endArrow=classic;html=1;exitX=0.5;exitY=0;exitDx=0;exitDy=0;entryX=0.5;entryY=1.077;entryDx=0;entryDy=0;entryPerimeter=0;" edge="1" parent="1" target="ZFMh5SB0hw9YFJ7T-eh--95">
          <mxGeometry width="50" height="50" relative="1" as="geometry">
            <mxPoint x="414" y="167" as="sourcePoint" />
            <mxPoint x="214" y="187" as="targetPoint" />
          </mxGeometry>
        </mxCell>
        <mxCell id="ZFMh5SB0hw9YFJ7T-eh--102" value="User_profil_user_rights" style="swimlane;fontStyle=0;childLayout=stackLayout;horizontal=1;startSize=26;horizontalStack=0;resizeParent=1;resizeParentMax=0;resizeLast=0;collapsible=1;marginBottom=0;" vertex="1" parent="1">
          <mxGeometry x="344" y="167" width="140" height="110" as="geometry" />
        </mxCell>
        <mxCell id="ZFMh5SB0hw9YFJ7T-eh--114" value="id" style="text;strokeColor=none;fillColor=none;align=left;verticalAlign=top;spacingLeft=4;spacingRight=4;overflow=hidden;rotatable=0;points=[[0,0.5],[1,0.5]];portConstraint=eastwest;" vertex="1" parent="ZFMh5SB0hw9YFJ7T-eh--102">
          <mxGeometry y="26" width="140" height="26" as="geometry" />
        </mxCell>
        <mxCell id="ZFMh5SB0hw9YFJ7T-eh--103" value="user_rights_id" style="text;strokeColor=none;fillColor=none;align=left;verticalAlign=top;spacingLeft=4;spacingRight=4;overflow=hidden;rotatable=0;points=[[0,0.5],[1,0.5]];portConstraint=eastwest;" vertex="1" parent="ZFMh5SB0hw9YFJ7T-eh--102">
          <mxGeometry y="52" width="140" height="26" as="geometry" />
        </mxCell>
        <mxCell id="ZFMh5SB0hw9YFJ7T-eh--111" value="user_profil_id" style="text;strokeColor=none;fillColor=none;align=left;verticalAlign=top;spacingLeft=4;spacingRight=4;overflow=hidden;rotatable=0;points=[[0,0.5],[1,0.5]];portConstraint=eastwest;" vertex="1" parent="ZFMh5SB0hw9YFJ7T-eh--102">
          <mxGeometry y="78" width="140" height="32" as="geometry" />
        </mxCell>
        <mxCell id="ZFMh5SB0hw9YFJ7T-eh--107" value="" style="endArrow=classic;html=1;exitX=0.993;exitY=0.769;exitDx=0;exitDy=0;exitPerimeter=0;" edge="1" parent="1" source="ZFMh5SB0hw9YFJ7T-eh--97">
          <mxGeometry width="50" height="50" relative="1" as="geometry">
            <mxPoint x="280" y="239" as="sourcePoint" />
            <mxPoint x="340" y="216" as="targetPoint" />
          </mxGeometry>
        </mxCell>
        <mxCell id="ZFMh5SB0hw9YFJ7T-eh--115" value="" style="endArrow=classic;html=1;" edge="1" parent="1">
          <mxGeometry width="50" height="50" relative="1" as="geometry">
            <mxPoint x="560" y="217" as="sourcePoint" />
            <mxPoint x="490" y="217" as="targetPoint" />
            <Array as="points">
              <mxPoint x="530" y="217" />
              <mxPoint x="510" y="217" />
            </Array>
          </mxGeometry>
        </mxCell>
      </root>
    </mxGraphModel>
  </diagram>
</mxfile>
